<?xml version="1.0" encoding="utf-8"?>
<svg viewBox="0 0 500 500" xmlns="http://www.w3.org/2000/svg">
  <defs>
    <linearGradient id="paint0_linear_501_9300" x1="9.53458" y1="-0.585852" x2="2.26718" y2="17.465" gradientUnits="userSpaceOnUse" gradientTransform="matrix(19.092626, 0, 0, 17.836729, -0.106832, 0.280457)">
      <stop stop-color="#125ACC"/>
      <stop offset="1" stop-color="#150069"/>
    </linearGradient>
    <linearGradient id="paint1_linear_501_9300" x1="2.80923" y1="24.5893" x2="25.8754" y2="2.32876" gradientUnits="userSpaceOnUse" gradientTransform="matrix(19.092626, 0, 0, 17.836729, -0.106832, 0.280457)">
      <stop stop-color="#1F28FF"/>
      <stop offset="1" stop-color="#00D1FF"/>
    </linearGradient>
  </defs>
  <path d="M 270.294 51.461 C 210.592 51.461 156.616 73.631 117.609 109.5 C 78.737 145.245 54.682 194.653 54.682 249.252 C 54.682 283.141 63.941 315.015 80.265 342.876 L 46.088 388.359 C 16.935 348.619 -0.115 300.764 -0.115 249.252 C -0.115 180.491 30.242 118.204 79.311 73.113 C 128.263 28.112 195.794 0.286 270.294 0.286 L 270.294 51.461 Z" fill="url(#paint0_linear_501_9300)" style=""/>
  <path d="M 137.276 266.018 C 145.657 277.718 142.316 293.557 129.791 301.407 C 117.266 309.235 100.293 306.097 91.912 294.396 C 87.158 287.743 82.938 280.858 79.348 273.616 C 75.682 266.179 72.59 258.312 70.166 249.876 C 65.03 231.969 62.452 213.453 62.452 195.045 C 62.452 154.788 74.708 114.298 99.072 80.658 C 123.777 46.555 160.702 19.728 209.637 7.475 C 228.271 2.818 248.51 0.286 270.294 0.286 L 472.504 0.286 C 487.625 0.286 499.882 11.737 499.882 25.864 C 499.882 31.893 497.668 37.44 493.925 41.81 L 412.591 150.026 C 407.78 157.357 399.112 162.262 389.241 162.262 L 263.726 162.262 L 263.592 162.262 L 263.458 162.262 L 263.306 162.262 L 263.172 162.262 L 263.038 162.262 L 262.906 162.262 L 262.771 162.262 L 262.638 162.279 L 262.503 162.279 L 262.37 162.279 L 262.237 162.279 L 262.122 162.279 L 261.989 162.279 L 261.854 162.297 L 261.721 162.297 L 261.586 162.316 L 261.472 162.316 L 261.34 162.316 L 261.206 162.333 L 261.092 162.333 L 260.957 162.351 L 260.824 162.351 L 260.709 162.369 L 260.594 162.369 L 260.461 162.386 L 260.347 162.404 L 260.212 162.404 L 260.098 162.423 L 259.983 162.423 L 259.869 162.439 L 259.736 162.458 L 259.621 162.476 L 259.506 162.476 L 259.392 162.493 L 259.277 162.511 L 259.144 162.53 L 259.029 162.546 L 258.915 162.565 L 258.801 162.565 L 258.686 162.582 L 258.572 162.6 L 258.456 162.618 L 258.361 162.635 L 258.227 162.653 L 258.132 162.672 L 258.017 162.688 L 257.903 162.707 L 257.788 162.725 L 257.692 162.743 L 257.578 162.761 L 257.463 162.78 L 257.369 162.815 L 257.253 162.833 L 257.158 162.85 L 257.044 162.868 L 256.948 162.887 L 256.833 162.922 L 256.738 162.94 L 256.718 162.94 L 256.624 162.957 L 256.527 162.993 L 256.413 163.01 L 256.318 163.029 L 256.223 163.047 L 256.127 163.082 L 255.917 163.136 L 255.898 163.136 L 255.688 163.189 L 255.669 163.189 L 255.478 163.259 L 255.458 163.259 L 255.267 163.313 L 255.249 163.313 L 255.058 163.386 L 255.039 163.386 C 250.916 164.652 247.822 166.988 245.722 169.86 C 243.068 173.534 241.731 178.19 241.731 182.97 L 241.731 183.184 L 241.731 183.291 L 241.731 183.398 L 241.751 183.506 L 241.751 183.629 L 241.751 183.736 L 241.751 183.827 L 241.751 183.933 L 241.751 184.057 L 241.751 184.165 L 241.751 184.272 L 241.769 184.272 L 241.769 184.361 L 241.769 184.486 L 241.769 184.593 L 241.789 184.593 L 241.789 184.681 L 241.789 184.789 L 241.808 184.915 L 241.808 185.003 L 241.826 185.11 L 241.826 185.217 L 241.826 185.324 L 241.846 185.324 L 241.846 185.432 L 241.865 185.539 L 241.865 185.646 L 241.885 185.753 L 241.885 185.841 L 241.903 185.86 L 241.903 185.948 L 241.903 186.056 L 241.903 186.075 L 241.922 186.163 L 241.942 186.27 L 241.96 186.359 L 241.96 186.377 L 241.96 186.484 L 241.979 186.573 L 241.999 186.681 L 242.017 186.787 L 242.036 186.894 L 242.036 186.983 L 242.056 186.983 L 242.056 187.09 L 242.075 187.197 L 242.094 187.305 L 242.114 187.393 L 242.132 187.5 L 242.151 187.607 L 242.171 187.696 L 242.189 187.803 L 242.208 187.911 L 242.228 188.001 L 242.246 188.108 L 242.265 188.196 L 242.265 188.213 L 242.285 188.303 L 242.322 188.392 L 242.342 188.499 L 242.361 188.607 L 242.38 188.695 L 242.4 188.784 L 242.437 188.891 L 242.457 188.998 L 242.476 189.088 L 242.495 189.088 L 242.514 189.196 L 242.533 189.285 L 242.552 189.373 L 242.59 189.48 L 242.609 189.569 C 243.488 192.601 247.554 196.33 252.709 201.074 C 257.177 205.177 251.124 199.468 256.318 204.32 L 315.371 259.489 C 322.874 266.481 316.288 260.435 318.54 262.522 C 329.71 272.796 338.493 280.858 343.19 297.214 L 343.286 297.536 L 343.361 297.838 L 343.457 298.142 L 343.533 298.444 L 343.609 298.749 L 343.705 299.052 L 343.78 299.373 L 343.858 299.676 L 343.934 299.979 L 344.01 300.282 L 344.068 300.585 L 344.068 300.604 L 344.144 300.906 L 344.221 301.21 L 344.297 301.53 L 344.354 301.834 L 344.431 302.138 L 344.489 302.441 L 344.546 302.762 L 344.621 303.066 L 344.793 303.992 L 344.851 304.295 L 344.851 304.313 L 344.908 304.617 L 344.946 304.919 L 345.098 305.847 L 345.156 306.168 L 345.251 306.792 C 345.404 307.826 345.538 308.844 345.634 309.896 L 345.671 310.2 L 345.729 310.824 L 345.749 311.127 L 345.843 312.375 L 345.863 312.679 L 345.881 312.981 L 345.9 313.303 C 345.938 313.82 345.957 314.337 345.977 314.854 L 345.977 315.783 L 345.996 316.086 L 345.996 316.389 L 345.996 316.71 L 345.996 317.013 L 345.996 317.691 L 345.996 317.709 L 345.977 318.387 L 345.977 319.065 L 345.977 319.082 L 345.957 319.743 L 345.938 319.759 L 345.92 320.42 L 345.92 320.437 L 345.881 321.098 L 345.881 321.133 L 345.824 321.793 L 345.824 321.811 L 345.786 322.47 L 345.786 322.505 C 344.793 335.278 340.402 347.925 332.574 358.715 C 324.288 370.167 312.355 379.424 296.833 384.579 L 296.813 384.579 L 296.012 384.846 L 295.992 384.846 L 295.171 385.114 L 294.35 385.363 L 294.331 385.363 L 293.511 385.595 L 293.492 385.613 L 292.671 385.845 L 292.651 385.845 L 291.811 386.076 L 290.952 386.291 L 290.628 386.363 L 290.303 386.451 L 289.998 386.523 L 289.978 386.523 L 289.673 386.593 L 289.349 386.665 L 288.7 386.808 L 288.375 386.88 L 288.049 386.95 L 287.725 387.022 L 287.4 387.094 L 287.075 387.164 L 286.751 387.236 L 286.426 387.289 L 286.103 387.361 L 285.778 387.414 L 285.434 387.468 L 285.109 387.521 L 285.109 387.539 L 284.784 387.593 L 284.461 387.646 L 284.117 387.7 L 283.792 387.753 L 283.449 387.807 L 283.105 387.86 L 282.781 387.914 L 282.456 387.967 L 282.113 388.002 L 282.113 388.022 L 281.769 388.057 L 281.424 388.092 L 281.424 388.11 L 281.1 388.145 L 280.756 388.199 L 280.413 388.236 L 280.087 388.271 L 280.069 388.271 L 279.744 388.324 L 279.401 388.359 L 279.058 388.396 L 278.713 388.431 L 278.37 388.466 L 278.027 388.503 L 277.683 388.52 L 277.338 388.556 L 276.995 388.591 L 276.651 388.61 L 276.288 388.646 L 275.945 388.664 L 275.602 388.699 L 275.258 388.716 L 274.896 388.735 L 274.551 388.753 L 274.208 388.788 L 273.844 388.806 L 273.501 388.806 L 273.139 388.823 L 272.794 388.841 L 272.432 388.86 L 272.088 388.86 L 271.726 388.877 L 271.363 388.895 L 271.019 388.895 L 270.656 388.895 L 270.294 388.913 L 269.95 388.913 L 269.588 388.913 L 269.225 388.913 L 157.876 388.913 L 113.085 448.541 L 262.657 448.541 C 279.707 448.541 295.209 446.633 309.185 443.137 C 344.546 434.272 371.083 415.079 388.725 390.749 C 406.672 365.956 415.704 335.563 415.704 304.937 C 415.704 290.792 413.776 276.738 409.936 263.306 C 408.314 257.651 406.291 252.515 403.96 247.771 C 401.498 242.795 398.73 238.246 395.675 233.983 C 387.273 222.281 390.635 206.425 403.16 198.594 C 415.685 190.747 432.658 193.887 441.039 205.587 C 445.793 212.258 450.013 219.125 453.583 226.367 C 457.287 233.822 460.361 241.67 462.785 250.107 C 467.922 268.033 470.499 286.53 470.499 304.937 C 470.499 345.195 458.242 385.685 433.879 419.324 C 409.174 453.427 372.249 480.254 323.314 492.509 C 304.679 497.164 284.441 499.715 262.657 499.715 L 60.447 499.715 C 45.326 499.715 33.049 488.246 33.049 474.118 C 33.049 468.091 35.283 462.542 39.024 458.173 L 120.34 349.958 C 125.151 342.626 133.839 337.739 143.709 337.739 L 269.225 337.739 L 269.359 337.739 L 269.492 337.739 L 269.625 337.739 L 269.778 337.721 L 269.912 337.721 L 270.026 337.721 L 270.16 337.721 L 270.294 337.721 L 270.446 337.721 L 270.58 337.704 L 270.713 337.704 L 270.828 337.704 L 270.962 337.704 L 271.096 337.686 L 271.21 337.686 L 271.363 337.667 L 271.477 337.667 L 271.611 337.667 L 271.726 337.65 L 271.859 337.65 L 271.973 337.632 L 272.108 337.632 L 272.241 337.632 L 272.356 337.613 L 272.49 337.596 L 272.604 337.596 L 272.737 337.578 L 272.853 337.561 L 272.968 337.561 L 273.082 337.543 L 273.215 337.525 L 273.33 337.508 L 273.444 337.508 L 273.558 337.489 L 273.673 337.489 L 273.807 337.471 L 273.922 337.454 L 274.036 337.436 L 274.15 337.418 L 274.265 337.401 L 274.379 337.383 L 274.493 337.364 L 274.59 337.347 L 274.722 337.329 L 274.818 337.329 L 274.933 337.294 L 275.028 337.276 L 275.047 337.276 L 275.163 337.257 L 275.258 337.24 L 275.373 337.222 L 275.488 337.204 L 275.582 337.187 L 275.696 337.169 L 275.793 337.134 L 275.907 337.115 L 276.002 337.097 L 276.117 337.062 L 276.213 337.062 L 276.307 337.026 L 276.327 337.026 L 276.423 337.007 L 276.518 336.972 L 276.537 336.972 L 276.633 336.954 L 276.728 336.935 L 276.824 336.919 L 277.034 336.847 L 277.053 336.847 L 277.262 336.793 L 277.473 336.74 L 277.492 336.74 L 277.683 336.67 L 277.702 336.67 L 277.893 336.616 L 277.93 336.598 C 282.016 335.349 285.129 333.013 287.229 330.123 C 289.883 326.449 291.22 321.793 291.22 317.013 L 291.22 316.798 L 291.22 316.692 L 291.2 316.692 L 291.2 316.585 L 291.2 316.478 L 291.2 316.371 L 291.2 316.246 L 291.2 316.156 L 291.2 316.049 L 291.2 315.944 L 291.2 315.818 L 291.18 315.73 L 291.18 315.711 L 291.18 315.622 L 291.18 315.515 L 291.162 315.39 L 291.162 315.301 L 291.162 315.283 L 291.162 315.194 L 291.143 315.087 L 291.143 314.979 L 291.143 314.961 L 291.123 314.872 L 291.123 314.765 L 291.105 314.658 L 291.105 314.551 L 291.086 314.444 L 291.086 314.337 L 291.066 314.248 L 291.048 314.123 L 291.048 314.034 L 291.048 313.927 L 291.029 313.927 L 291.029 313.82 L 291.009 313.712 L 290.99 313.605 L 290.99 313.517 L 290.972 313.517 L 290.972 313.41 L 290.972 313.391 L 290.952 313.303 L 290.933 313.196 L 290.914 313.106 L 290.895 312.999 L 290.895 312.981 L 290.895 312.892 L 290.875 312.804 L 290.875 312.786 L 290.856 312.679 L 290.837 312.59 L 290.818 312.482 L 290.799 312.393 L 290.78 312.286 L 290.761 312.18 L 290.742 312.089 L 290.723 311.984 L 290.704 311.877 L 290.685 311.786 L 290.646 311.679 L 290.628 311.59 L 290.609 311.483 L 290.589 311.395 L 290.569 311.288 L 290.551 311.198 L 290.512 311.091 L 290.494 310.984 L 290.455 310.894 L 290.437 310.806 L 290.417 310.699 L 290.398 310.61 L 290.36 310.502 L 290.341 310.414 C 289.463 307.399 285.395 303.652 280.241 298.908 C 275.774 294.805 281.807 300.514 276.633 295.68 L 217.579 240.493 C 210.075 233.501 216.663 239.548 214.411 237.461 C 203.221 227.187 194.438 219.125 189.761 202.768 L 189.665 202.466 L 189.589 202.163 L 189.494 201.86 L 189.417 201.538 L 189.341 201.234 L 189.245 200.931 L 189.169 200.61 L 189.093 200.307 L 189.016 200.004 L 188.94 199.701 L 188.883 199.398 L 188.883 199.38 L 188.805 199.076 L 188.73 198.774 L 188.654 198.47 L 188.597 198.15 L 188.52 197.846 L 188.462 197.542 L 188.405 197.222 L 188.329 196.918 L 188.157 195.99 L 188.1 195.688 L 188.043 195.366 L 187.985 195.063 L 187.833 194.136 L 187.794 193.815 L 187.699 193.209 L 187.66 192.887 C 187.527 191.96 187.413 191.031 187.317 190.088 L 187.28 189.783 L 187.222 189.178 L 187.222 189.158 L 187.202 188.856 L 187.108 187.626 L 187.108 187.607 L 187.088 187.305 L 187.051 186.681 C 187.012 186.075 186.993 185.45 186.974 184.826 L 186.955 183.897 L 186.955 183.594 L 186.955 183.273 L 186.955 182.97 L 186.955 182.292 L 186.955 182.274 L 186.955 181.615 L 186.955 181.595 L 186.974 180.936 L 186.974 180.918 L 186.993 180.241 L 186.993 180.223 L 187.031 179.564 L 187.031 179.545 L 187.069 178.886 L 187.069 178.849 L 187.108 178.208 L 187.108 178.171 L 187.165 177.53 L 187.165 177.494 C 188.138 164.706 192.548 152.06 200.358 141.285 C 208.662 129.816 220.595 120.558 236.118 115.404 L 236.137 115.404 L 236.939 115.137 L 236.957 115.137 L 237.78 114.887 L 237.78 114.868 L 238.6 114.638 L 238.62 114.619 L 239.44 114.389 L 239.459 114.37 L 240.28 114.137 L 240.3 114.137 L 241.14 113.925 L 241.999 113.692 L 242.322 113.62 L 242.647 113.531 L 242.953 113.459 L 243.277 113.389 L 243.602 113.317 L 244.232 113.175 L 244.556 113.087 L 244.9 113.033 L 245.225 112.96 L 245.551 112.888 L 245.874 112.818 L 246.18 112.765 L 246.524 112.693 L 246.848 112.639 L 247.173 112.569 L 247.516 112.516 L 247.841 112.462 L 247.841 112.444 L 248.165 112.389 L 248.49 112.336 L 248.833 112.283 L 249.158 112.229 L 249.502 112.176 L 249.827 112.122 L 250.17 112.069 L 250.495 112.015 L 250.838 111.98 L 250.838 111.962 L 251.181 111.927 L 251.506 111.891 L 251.525 111.873 L 251.851 111.838 L 252.194 111.801 L 252.519 111.747 L 252.538 111.747 L 252.862 111.712 L 253.206 111.658 L 253.55 111.64 L 253.893 111.586 L 254.236 111.551 L 254.581 111.516 L 254.924 111.498 L 255.267 111.463 L 255.612 111.428 L 255.956 111.391 L 256.299 111.374 L 256.643 111.337 L 257.006 111.321 L 257.349 111.284 L 257.692 111.267 L 258.055 111.249 L 258.398 111.231 L 258.743 111.214 L 259.106 111.195 L 259.449 111.177 L 259.793 111.16 L 260.155 111.142 L 260.518 111.123 L 260.862 111.123 L 261.225 111.106 L 261.586 111.087 L 261.932 111.087 L 262.294 111.087 L 262.657 111.087 L 263 111.087 L 263.363 111.087 L 263.726 111.087 L 375.074 111.087 L 419.865 51.461 L 270.294 51.461 C 253.244 51.461 237.741 53.35 223.764 56.864 C 188.386 65.711 161.867 84.904 144.225 109.233 C 126.26 134.043 117.247 164.419 117.247 195.045 C 117.247 209.19 119.175 223.246 123.013 236.676 C 124.637 242.331 126.66 247.467 128.989 252.231 C 131.451 257.188 134.22 261.737 137.276 266.018 Z" fill="url(#paint1_linear_501_9300)" style=""/>
</svg>