<svg width="155" height="31" viewBox="0 0 155 31" fill="none" xmlns="http://www.w3.org/2000/svg">
<path d="M15.4273 3.12523C12.0211 3.12523 8.94153 4.47999 6.7164 6.66975C4.49793 8.85285 3.12574 11.8704 3.12574 15.2053C3.12574 17.2746 3.65422 19.2214 4.58507 20.9227L2.6352 23.7004C0.97186 21.2738 0 18.3505 0 15.2053C0 11.0057 1.73151 7.20182 4.53125 4.4477C7.32381 1.69973 11.1764 0 15.4273 0V3.12523Z" fill="url(#paint0_linear_203_14327)"/>
<path d="M7.83846 16.2284C8.31671 16.9429 8.12551 17.9107 7.41097 18.3894C6.69643 18.8682 5.72867 18.6765 5.24991 17.9619C4.97824 17.5555 4.73784 17.1351 4.53332 16.6928C4.32367 16.2381 4.14734 15.7578 4.00894 15.2427C3.71626 14.1488 3.56966 13.0191 3.56966 11.8945C3.56966 9.4356 4.26831 6.96289 5.65895 4.90845C7.06856 2.82582 9.17426 1.18811 11.9668 0.439734C13.0294 0.154737 14.1843 -6.10352e-05 15.4273 -6.10352e-05H26.964C27.8267 -6.10352e-05 28.5264 0.699617 28.5264 1.56281C28.5264 1.93085 28.3993 2.26966 28.186 2.53672L23.5461 9.14547C23.2714 9.59296 22.7772 9.8918 22.2134 9.8918H15.0526H15.0449H15.0372H15.029L15.0213 9.89231H15.0136H15.0059H14.9983L14.9906 9.89283H14.9834L14.9757 9.89334H14.968L14.9608 9.89385H14.9531L14.946 9.89437L14.9383 9.89487L14.9311 9.89538H14.9239L14.9167 9.8959L14.9091 9.89641L14.9019 9.89692L14.8947 9.89744L14.8875 9.89795L14.8809 9.89846L14.8737 9.89898L14.8665 9.9L14.8593 9.90052L14.8527 9.90102L14.8455 9.90205L14.8388 9.90256L14.8322 9.90308L14.825 9.9041L14.8183 9.90513L14.8117 9.90564L14.805 9.90667L14.7983 9.90718L14.7912 9.9082L14.785 9.90923L14.7783 9.91025L14.7717 9.91077L14.765 9.91179L14.7589 9.91282L14.7522 9.91384L14.7461 9.91486L14.7394 9.9164L14.7332 9.91743L14.7266 9.91846L14.7204 9.91948L14.7143 9.9205L14.7081 9.92204L14.702 9.92307L14.6958 9.92409L14.6897 9.92563L14.6835 9.92665L14.6774 9.92819L14.6712 9.92973L14.6656 9.93076L14.6594 9.9323L14.6538 9.93332H14.6533L14.6476 9.93486L14.642 9.93639H14.6415L14.6359 9.93793L14.6302 9.93947L14.6246 9.94049L14.6189 9.94203L14.6066 9.94562H14.6061L14.5943 9.94921H14.5933L14.582 9.95279H14.581L14.5697 9.95639L14.5687 9.9569L14.5579 9.96048H14.5564C14.3221 10.0379 14.1453 10.1804 14.0259 10.3567C13.8742 10.5807 13.7978 10.8647 13.7978 11.1569V11.1702V11.1768V11.1835L13.7983 11.1902V11.1968V11.2035V11.2097H13.7988V11.2163V11.223H13.7993V11.2296V11.2363H13.7998V11.2425L13.8003 11.2491V11.2558H13.8009V11.2619L13.8014 11.2686L13.8019 11.2753V11.2814H13.8024L13.8029 11.2881L13.8034 11.2942V11.2947V11.3009H13.8039L13.8044 11.3076L13.805 11.3137L13.8055 11.3199V11.3204L13.806 11.3265L13.8065 11.3327L13.807 11.3332L13.8075 11.3393L13.808 11.3455V11.346L13.8091 11.3522L13.8096 11.3583L13.8106 11.3645V11.365L13.8111 11.3711L13.8121 11.3773L13.8126 11.3839H13.8132L13.8137 11.3901L13.8147 11.3962L13.8152 11.4024H13.8157L13.8162 11.4085L13.8167 11.409L13.8173 11.4147V11.4152L13.8183 11.4214L13.8193 11.4275L13.8203 11.4337H13.8208L13.8214 11.4398H13.8219L13.8229 11.446L13.8239 11.4521L13.8249 11.4583L13.826 11.4644L13.827 11.4706H13.8275L13.8285 11.4762V11.4767L13.8296 11.4824V11.4829L13.8311 11.4885L13.8321 11.4947L13.8337 11.5008L13.8352 11.507L13.8362 11.5126L13.8378 11.5187L13.8393 11.5249L13.8403 11.5305H13.8408L13.8419 11.5367L13.8434 11.5423L13.8449 11.5485L13.8465 11.5546L13.848 11.5603C13.8977 11.7448 14.1294 11.9729 14.4236 12.2625C14.6789 12.5137 14.3339 12.1651 14.6297 12.4604L17.9989 15.8301C18.4269 16.2576 18.0512 15.888 18.1804 16.0156C18.8175 16.6425 19.3183 17.1351 19.5864 18.1342L19.5915 18.1531L19.5961 18.1716L19.6013 18.1905L19.6059 18.209L19.6105 18.228L19.6151 18.2464L19.6197 18.2654L19.6238 18.2838V18.2843L19.6284 18.3028L19.6325 18.3218L19.6366 18.3402V18.3407L19.6407 18.3592L19.6448 18.3782L19.6489 18.3971L19.6525 18.4161L19.6566 18.4345V18.4351L19.6602 18.4535L19.6638 18.4725L19.6674 18.4914L19.6776 18.5478V18.5483L19.6807 18.5668V18.5673L19.6838 18.5858L19.6869 18.6047L19.6956 18.6616L19.6987 18.6806L19.7038 18.7185C19.7125 18.7816 19.7197 18.8446 19.7258 18.9082L19.7274 18.9271L19.7309 18.9646V18.9651L19.7325 18.984L19.7376 19.0594V19.0599L19.7386 19.0789L19.7397 19.0973H19.7402L19.7407 19.1163V19.1168C19.7427 19.1481 19.7438 19.1798 19.7448 19.2111L19.7458 19.268L19.7463 19.2865V19.3054V19.3244L19.7468 19.3434H19.7463V19.3849V19.3854L19.7458 19.4264V19.4269L19.7448 19.4679V19.4689L19.7438 19.5094L19.7432 19.5105L19.7417 19.5515V19.5525L19.7397 19.593V19.5945L19.7371 19.6345V19.636L19.7345 19.676V19.6781C19.6781 20.4587 19.427 21.2312 18.981 21.8894C18.5079 22.589 17.8267 23.1549 16.9415 23.4691L16.9399 23.4697L16.8943 23.4855L16.8933 23.4861L16.8471 23.5014L16.8461 23.502L16.8 23.5168L16.799 23.5173L16.7518 23.5317L16.7513 23.5322L16.7036 23.5465H16.7031L16.6549 23.5604L16.6057 23.5737L16.5878 23.5783H16.5873L16.5693 23.5835L16.5514 23.5881H16.5509L16.5329 23.5927L16.5145 23.5973L16.4776 23.606L16.4591 23.6101L16.4407 23.6147L16.4222 23.6188L16.4038 23.6229L16.3853 23.627L16.3663 23.6311L16.3479 23.6347L16.3289 23.6388L16.3105 23.6424L16.2915 23.646L16.2725 23.6496V23.6501L16.2541 23.6532L16.2351 23.6568L16.2161 23.6603L16.1972 23.6634L16.1782 23.6665V23.667L16.1587 23.6701L16.1398 23.6732L16.1208 23.6762L16.1013 23.6788V23.6793L16.0824 23.6819L16.0629 23.6844V23.6849L16.0439 23.6875L16.0244 23.6901L16.005 23.6926L15.986 23.6952H15.9855L15.966 23.6978L15.9465 23.6998L15.9271 23.7024L15.9076 23.7044L15.8881 23.7065L15.8686 23.7085L15.8491 23.7106H15.8486L15.8291 23.7126L15.8097 23.7142L15.7897 23.7157L15.7697 23.7177L15.7502 23.7193H15.7497L15.7302 23.7208L15.7102 23.7224L15.6902 23.7234L15.6702 23.7244L15.6503 23.726L15.6303 23.727L15.6103 23.728L15.5898 23.729L15.5698 23.7301L15.5498 23.7306L15.5293 23.7311L15.5093 23.7321L15.4888 23.7326L15.4683 23.7331H15.4478L15.4278 23.7336H15.4073L15.3868 23.7342H15.3663H9.01382L6.45807 27.375H14.9916C15.9645 27.375 16.8487 27.2587 17.6463 27.0449C19.6638 26.5042 21.1775 25.3324 22.1837 23.8459C23.2083 22.3317 23.7235 20.4757 23.7235 18.6057C23.7235 17.742 23.6138 16.8835 23.3939 16.0633C23.3016 15.7184 23.1868 15.4041 23.053 15.114C22.9126 14.8106 22.7547 14.5327 22.5804 14.2718C22.1017 13.5573 22.2928 12.5895 23.0079 12.1108C23.7224 11.632 24.6902 11.8232 25.169 12.5383C25.4406 12.9453 25.681 13.3651 25.885 13.8074C26.0957 14.2621 26.2715 14.7424 26.4094 15.2575C26.7026 16.3514 26.8492 17.4816 26.8492 18.6057C26.8492 21.0646 26.1506 23.5373 24.7599 25.5918C23.3503 27.6744 21.2446 29.3121 18.452 30.0605C17.3889 30.3455 16.2346 30.5003 14.9916 30.5003H3.45484C2.59165 30.5003 1.89197 29.8006 1.89197 28.9379C1.89197 28.5694 2.0196 28.2305 2.23284 27.9635L6.87224 21.3547C7.14699 20.9072 7.64163 20.6084 8.20496 20.6084H15.3663H15.374H15.3817H15.3893L15.3976 20.6079H15.4052H15.4124H15.4201L15.4278 20.6074H15.4355L15.4432 20.6069H15.4509L15.458 20.6064H15.4657L15.4729 20.6058L15.4801 20.6053L15.4878 20.6048H15.4949L15.5021 20.6043L15.5093 20.6038L15.5165 20.6033L15.5237 20.6028L15.5308 20.6023L15.538 20.6017L15.5452 20.6007L15.5524 20.6002L15.559 20.5997L15.5662 20.5992L15.5729 20.5982L15.58 20.5976L15.5867 20.5971L15.5939 20.5961L15.6005 20.5951L15.6072 20.5946L15.6139 20.5935L15.6205 20.593L15.6272 20.592L15.6339 20.591L15.6405 20.59L15.6472 20.5894L15.6533 20.5884L15.66 20.5874L15.6667 20.5864L15.6728 20.5853L15.6795 20.5838L15.6856 20.5833L15.6918 20.5818L15.6979 20.5807H15.6984L15.7046 20.5797L15.7107 20.5782L15.7169 20.5771L15.723 20.5761L15.7292 20.5746L15.7353 20.5736L15.741 20.572H15.7415L15.7471 20.571H15.7476L15.7533 20.5695L15.7594 20.5679L15.7651 20.5669L15.7707 20.5654H15.7712L15.7769 20.5638L15.7825 20.5623H15.783L15.7887 20.5613L15.7943 20.5597L15.7999 20.5582L15.8122 20.5546H15.8127L15.8245 20.551H15.825L15.8368 20.5474H15.8379L15.8491 20.5438L15.8502 20.5433L15.8609 20.5397L15.8625 20.5392C16.0962 20.4623 16.2736 20.3198 16.393 20.1435C16.5447 19.9195 16.6211 19.635 16.6211 19.3434V19.33V19.3234H16.6206V19.3167V19.31V19.3034V19.2967H16.6201V19.2906V19.2839L16.6196 19.2772V19.2706L16.619 19.2644V19.2639V19.2577L16.6185 19.2511L16.618 19.2444V19.2383L16.6175 19.2378V19.2316L16.617 19.2249L16.6165 19.2188V19.2183L16.616 19.2121L16.6155 19.2055L16.6149 19.1993L16.6144 19.1932V19.1926L16.6139 19.1865L16.6134 19.1798L16.6129 19.1737H16.6124L16.6119 19.167L16.6114 19.1609L16.6108 19.1547L16.6103 19.1542L16.6098 19.1481L16.6093 19.1419V19.1414L16.6083 19.1352L16.6078 19.1291H16.6073L16.6067 19.1229V19.1224L16.6057 19.1168V19.1163L16.6052 19.1101H16.6047L16.6042 19.104L16.6032 19.0978V19.0973L16.6021 19.0917V19.0912L16.6011 19.0855V19.085L16.6006 19.0789H16.6001L16.5991 19.0727L16.598 19.0666L16.597 19.0604L16.596 19.0543L16.595 19.0481L16.5939 19.042L16.5929 19.0358H16.5924L16.5914 19.0296L16.5903 19.0235L16.5888 19.0173L16.5878 19.0117L16.5862 19.0056L16.5852 18.9994L16.5837 18.9933L16.5826 18.9876L16.5811 18.9815L16.5796 18.9753L16.578 18.9697L16.5765 18.9635L16.575 18.9579L16.5739 18.9517L16.5724 18.9456L16.5709 18.9399C16.5211 18.7554 16.2894 18.5273 15.9952 18.2377C15.74 17.9865 16.0844 18.3356 15.7892 18.0398L12.4199 14.6701C11.9919 14.2426 12.3677 14.6122 12.2385 14.4846C11.6008 13.8577 11.1 13.3651 10.8325 12.366L10.8273 12.3471L10.8227 12.3286L10.8176 12.3102L10.813 12.2912L10.8084 12.2722L10.8038 12.2538L10.7992 12.2348L10.7951 12.2159L10.7904 12.1974L10.7863 12.1784L10.7822 12.16V12.1595L10.7781 12.141L10.774 12.1221L10.7699 12.1031L10.7658 12.0841L10.7622 12.0657V12.0652L10.7587 12.0467L10.7551 12.0277L10.7515 12.0088L10.7412 11.9524V11.9519L10.7382 11.9334L10.7346 11.9145L10.7315 11.8955L10.7228 11.8386L10.7202 11.8196L10.7146 11.7817L10.7125 11.7627C10.7048 11.7058 10.6982 11.6489 10.693 11.592L10.691 11.5736V11.5731L10.6879 11.5357V11.5351L10.6864 11.5167V11.5162L10.6813 11.4408V11.4403L10.6797 11.4219L10.6777 11.3839C10.6761 11.346 10.6746 11.3081 10.6736 11.2701L10.6725 11.2138V11.1948H10.672V11.1758V11.1569V11.1153L10.6725 11.1148L10.6731 11.0738V11.0733L10.6736 11.0323L10.6741 11.0313L10.6751 10.9903V10.9898L10.6766 10.9487L10.6772 10.9477L10.6792 10.9072V10.9057L10.6813 10.8657L10.6818 10.8642L10.6843 10.8242V10.8221C10.7402 10.0415 10.9919 9.26901 11.4373 8.61085C11.911 7.91117 12.5922 7.34528 13.4774 7.03106L13.4789 7.03055L13.5241 7.01466L13.5256 7.01415L13.5717 6.99877L13.5728 6.99826L13.6189 6.98339L13.6199 6.98288L13.6671 6.96853L13.6676 6.96801L13.7152 6.95366H13.7158L13.7639 6.93983L13.8132 6.9265L13.8311 6.92188L13.8495 6.91676L13.8675 6.91214L13.8859 6.90753L13.9044 6.90291L13.9408 6.8942L13.9592 6.88959L13.9782 6.88549L13.9967 6.88139L14.0151 6.87729L14.0336 6.87319L14.052 6.8696V6.86909L14.071 6.8655L14.0899 6.8614L14.1084 6.85781L14.1274 6.85422L14.1458 6.85064V6.85012L14.1648 6.84704L14.1838 6.84346L14.2027 6.83987L14.2217 6.8368L14.2406 6.83372V6.8332L14.2596 6.83013L14.2791 6.82705L14.2981 6.82398L14.317 6.82142L14.3175 6.8209L14.3365 6.81834L14.3555 6.81578L14.356 6.81526L14.3749 6.8127L14.3944 6.81014L14.4134 6.80757H14.4139L14.4329 6.80502L14.4523 6.80245H14.4529L14.4718 6.8004L14.4913 6.79784H14.4918L14.5108 6.79579H14.5113L14.5308 6.79373L14.5502 6.79169L14.5697 6.78964L14.5897 6.78758L14.6092 6.78605L14.6292 6.78451L14.6487 6.78246L14.6687 6.78092L14.6886 6.77939L14.7086 6.77785L14.7286 6.77682L14.7486 6.77579L14.7686 6.77426L14.7886 6.77324L14.8086 6.77221L14.8286 6.77118L14.8491 6.77016L14.8691 6.76964L14.8896 6.76913L14.9096 6.7681L14.9301 6.7676H14.9506L14.9706 6.76708L14.9911 6.76657H15.0116H15.0321H15.0526H21.405L23.9608 3.12517H15.4273C14.4544 3.12517 13.5697 3.24152 12.7726 3.45527C10.7546 3.99605 9.24141 5.16782 8.2352 6.65431C7.21004 8.16849 6.6954 10.0246 6.6954 11.8945C6.6954 12.7582 6.80509 13.6168 7.02499 14.4369C7.11726 14.7819 7.23208 15.0961 7.36586 15.3862C7.5058 15.6891 7.66419 15.9675 7.83846 16.2284Z" fill="url(#paint1_linear_203_14327)"/>
<path d="M48.2357 11.0938C46.4247 9.69444 44.4907 9.28284 42.3097 9.28284C39.3669 9.28284 36.9593 10.4351 36.9593 12.9253C36.9593 15.1268 38.3997 16.073 40.8073 16.3611L44.7168 16.8142C45.437 16.8758 45.54 17.0813 45.54 17.4724C45.54 18.2341 44.3057 18.5837 42.7418 18.5837C40.9928 18.5837 39.4289 18.028 37.8856 16.9373L36.4657 19.2834C38.3382 20.7032 40.1076 21.2173 42.4742 21.2173C45.8901 21.2173 48.4827 20.0446 48.4827 17.4314C48.4827 15.2298 46.9393 14.2216 44.4287 13.913L41.1159 13.5424C40.4372 13.4599 39.9431 13.3779 39.9431 12.9042C39.9431 12.4106 40.3752 11.9785 42.3097 11.9785C44.0791 11.9785 45.4575 12.3491 46.7748 13.3159L48.2357 11.0938ZM50.6756 9.5504V20.9293H61.4168V18.1311H53.7003V16.5262H60.388V13.7895H53.7003V12.2871H61.1492V9.5504H50.6756ZM63.6506 9.5504V20.9293H74.1858V18.1926H66.6754V9.5504H63.6506ZM76.1116 9.5504V20.9293H86.6467V18.1926H79.1363V9.5504H76.1116ZM88.572 9.5504V20.9293H96.556C98.634 20.9293 100.28 19.3449 100.28 17.3489C100.28 15.9085 99.7043 15.0648 98.7166 14.4886C99.2517 14.1186 99.5188 13.4189 99.5188 12.6987C99.5188 10.7852 98.0169 9.5504 95.9594 9.5504H88.572ZM91.5968 12.2666H95.8358C96.3704 12.2666 96.556 12.7397 96.556 13.0278C96.556 13.3984 96.2474 13.7895 95.9389 13.7895H91.5968V12.2666ZM91.5968 16.4231H96.3915C96.9261 16.4231 97.3172 16.8142 97.3172 17.3284C97.3172 17.8635 96.9471 18.1926 96.4735 18.1926H91.5968V16.4231ZM102.226 9.5504V15.3529C102.226 19.1188 104.51 21.2173 108.091 21.2173C111.671 21.2173 113.955 19.1188 113.955 15.3529V9.5504H110.909V15.3739C110.909 17.3904 110.025 18.5632 108.091 18.5632C106.136 18.5632 105.251 17.3904 105.251 15.3739V9.5504H102.226ZM116.189 9.5504V20.9293H119.214V18.5012H122.753L124.05 20.9293H127.342L125.613 17.8225C126.889 17.0608 127.671 15.7645 127.671 14.0776C127.671 11.3819 125.654 9.5504 122.918 9.5504H116.189ZM119.214 12.3076H122.794C123.864 12.3076 124.626 12.9868 124.626 14.0776C124.626 15.1883 123.864 15.744 122.794 15.744H119.214V12.3076ZM141.222 11.0938C139.412 9.69444 137.477 9.28284 135.296 9.28284C132.354 9.28284 129.946 10.4351 129.946 12.9253C129.946 15.1268 131.387 16.073 133.794 16.3611L137.704 16.8142C138.424 16.8758 138.527 17.0813 138.527 17.4724C138.527 18.2341 137.292 18.5837 135.728 18.5837C133.979 18.5837 132.415 18.028 130.872 16.9373L129.452 19.2834C131.325 20.7032 133.095 21.2173 135.461 21.2173C138.877 21.2173 141.469 20.0446 141.469 17.4314C141.469 15.2298 139.926 14.2216 137.416 13.913L134.103 13.5424C133.424 13.4599 132.93 13.3779 132.93 12.9042C132.93 12.4106 133.362 11.9785 135.296 11.9785C137.066 11.9785 138.444 12.3491 139.761 13.3159L141.222 11.0938ZM143.106 9.5504V12.2666H147.531V20.9293H150.576V12.2666H155V9.5504H143.106Z" fill="white"/>
<defs>
<linearGradient id="paint0_linear_203_14327" x1="10.386" y1="-0.638168" x2="2.46964" y2="19.0246" gradientUnits="userSpaceOnUse">
<stop stop-color="#125ACC"/>
<stop offset="1" stop-color="#150069"/>
</linearGradient>
<linearGradient id="paint1_linear_203_14327" x1="3.06015" y1="26.7851" x2="28.186" y2="2.53672" gradientUnits="userSpaceOnUse">
<stop stop-color="#1F28FF"/>
<stop offset="1" stop-color="#00D1FF"/>
</linearGradient>
</defs>
</svg>
